<svg id="Layer_1" enable-background="new 0 0 512 512" height="512" viewBox="0 0 512 512" width="512" xmlns="http://www.w3.org/2000/svg"><g><circle cx="256" cy="72.66" r="72.66"/><path d="m333.384 427.355 46.063-53.202c3.071-3.546 4.061-8.44 2.611-12.901-1.449-4.46-5.127-7.838-9.695-8.901l-68.537-15.965-36.364-60.249c-2.423-4.016-6.772-6.47-11.462-6.47s-9.039 2.455-11.463 6.47l-36.363 60.249-68.537 15.965c-4.568 1.063-8.246 4.441-9.696 8.901-1.45 4.461-.459 9.355 2.611 12.901l46.063 53.202-5.995 70.116c-.4 4.673 1.675 9.215 5.47 11.971 3.795 2.758 8.756 3.326 13.076 1.504l64.834-27.369 64.832 27.369c1.674.707 3.445 1.054 5.205 1.054 2.785 0 5.547-.868 7.871-2.557 3.795-2.757 5.87-7.298 5.47-11.971z"/><path d="m476.458 415.416-37.632-30.955-4.065-48.557c-.391-4.674-3.2-8.802-7.404-10.882-4.202-2.078-9.19-1.808-13.143.716l-14.192 9.062c4.755 4.766 8.434 10.619 10.566 17.175 4.671 14.376 1.428 30.396-8.461 41.816l-37.773 43.627 3.946 46.152 19.504 22.607c2.567 2.975 6.28 4.642 10.136 4.642.747 0 1.5-.063 2.251-.19 4.623-.789 8.498-3.939 10.212-8.304l17.811-45.354 44.924-18.872c4.324-1.817 7.383-5.763 8.062-10.405.678-4.641-1.121-9.299-4.742-12.278z"/><path d="m101.409 351.982c2.133-6.56 5.813-12.416 10.57-17.183l-14.192-9.062c-3.954-2.524-8.939-2.795-13.143-.716-4.204 2.081-7.013 6.209-7.404 10.882l-4.066 48.557-37.631 30.955c-3.622 2.979-5.421 7.637-4.742 12.278s3.738 8.588 8.062 10.405l44.924 18.872 17.811 45.354c1.715 4.365 5.589 7.515 10.212 8.304.751.127 1.503.19 2.251.19 3.856 0 7.57-1.667 10.136-4.642l19.504-22.607 3.946-46.151-37.773-43.628c-9.889-11.42-13.132-27.439-8.465-41.808z"/><path d="m189.034 310.041 29.819-49.406c7.805-12.933 22.039-20.968 37.147-20.968 15.109 0 29.344 8.036 37.148 20.972l29.817 49.402 56.203 13.092c1.999.465 3.943 1.083 5.831 1.82v-123.15c0-30.838-21.575-56.698-50.368-63.222-15.802 18.818-38.217 31.901-63.632 35.64v27.383c0 8.284-6.716 15-15 15s-15-6.716-15-15v-27.384c-25.415-3.739-47.83-16.822-63.632-35.64-28.793 6.525-50.367 32.384-50.367 63.222v123.15c1.889-.737 3.834-1.355 5.834-1.821z"/></g></svg>